PathFileType	4	(X/Y/Z)	/Users/itak/Documents/Research/Walk-IL/dataset/trc/00550_00009.trc
DataRate	CameraRate	NumFrames	NumMarkers	Units	OrigDataRate	OrigDataStartFrame	OrigNumFrames
100.000000	100.000000	4	53	mm	100.000000	475	543
Frame#	Time	RPSI			LPSI			L3			STRN			T10			C7			CLAV			RBAK			LBAK			LSHO			LUPA			LAEL			LAOL			LWTS			LWPS			LFRA			LIFD			LHPS			LHTS			RSHO			RUPA			RAEL			RAOL			RWTS			RWPS			RFRA			RIFD			RHTS			RHPS			RBHD			LFHD			RFHD			LBHD			LHIP			RHIP			RASI			LASI			LKNE			LTHI			LANK			LTIP			LTOE			LMT1			LMT5			LHEE			RKNE			RTHI			RANK			RTIP			RTOE			RMT1			RMT5			RHEE			
		X1	Y1	Z1	X2	Y2	Z2	X3	Y3	Z3	X4	Y4	Z4	X5	Y5	Z5	X6	Y6	Z6	X7	Y7	Z7	X8	Y8	Z8	X9	Y9	Z9	X10	Y10	Z10	X11	Y11	Z11	X12	Y12	Z12	X13	Y13	Z13	X14	Y14	Z14	X15	Y15	Z15	X16	Y16	Z16	X17	Y17	Z17	X18	Y18	Z18	X19	Y19	Z19	X20	Y20	Z20	X21	Y21	Z21	X22	Y22	Z22	X23	Y23	Z23	X24	Y24	Z24	X25	Y25	Z25	X26	Y26	Z26	X27	Y27	Z27	X28	Y28	Z28	X29	Y29	Z29	X30	Y30	Z30	X31	Y31	Z31	X32	Y32	Z32	X33	Y33	Z33	X34	Y34	Z34	X35	Y35	Z35	X36	Y36	Z36	X37	Y37	Z37	X38	Y38	Z38	X39	Y39	Z39	X40	Y40	Z40	X41	Y41	Z41	X42	Y42	Z42	X43	Y43	Z43	X44	Y44	Z44	X45	Y45	Z45	X46	Y46	Z46	X47	Y47	Z47	X48	Y48	Z48	X49	Y49	Z49	X50	Y50	Z50	X51	Y51	Z51	X52	Y52	Z52	X53	Y53	Z53	

476	4.75	1325.87646484375	1010.981201171875	277.0127868652344	1329.843872070312	1013.732055664062	143.6622009277344	1327.65966796875	1108.990356445312	206.0425720214844	1562.010009765625	1300.820678710938	202.196044921875	1319.714965820312	1234.2958984375	201.9131011962891	1365.81787109375	1508.71484375	211.4728546142578	1540.947509765625	1411.595336914062	203.3049468994141	1297.268432617188	1383.496948242188	297.5344543457031	1332.467529296875	1455.2109375	118.4695663452148	1432.043334960938	1480.965087890625	40.62408447265625	1442.549194335938	1355.653076171875	-38.75872039794922	1519.220092773438	1146.282836914062	-57.63819885253906	1429.114624023438	1113.395385742188	-24.07965087890625	1674.975463867188	949.7590942382812	19.71353340148926	1655.22607421875	912.0509033203125	-56.63259506225586	1568.4912109375	1071.840576171875	-56.119384765625	1736.140869140625	791.1190185546875	25.08176231384277	1683.2939453125	859.7755737304688	-43.05031585693359	1720.748291015625	884.5460815429688	8.181694984436035	1426.304443359375	1472.174438476562	367.3447265625	1408.204956054688	1407.7724609375	434.2459716796875	1406.203247070312	1120.220947265625	484.6522827148438	1350.749755859375	1101.253295898438	458.2852783203125	1548.57470703125	906.68408203125	448.3467407226562	1504.6064453125	883.8978881835938	514.0496215820312	1418.11865234375	1065.912109375	493.3333435058594	1569.852661132812	733.51416015625	455.7485656738281	1580.389038085938	816.4525756835938	462.7799682617188	1524.66796875	810.3222045898438	511.5444641113281	1464.027709960938	1693.724853515625	276.0288391113281	1622.890869140625	1696.700805664062	141.46630859375	1605.277465820312	1698.111083984375	287.5069580078125	1491.917724609375	1690.3505859375	113.5270614624023	1466.785034179688	943.47216796875	9.737409591674805	1450.194091796875	945.7849731445312	402.2397155761719	1538.370849609375	979.2548217773438	345.0437622070312	1538.703491210938	970.0006103515625	69.11124420166016	1534.92919921875	501.9322509765625	90.74669647216797	1518.331787109375	665.7281494140625	51.30372619628906	1445.025268554688	28.92352104187012	102.9569473266602	1472.816162109375	251.5877380371094	88.92655944824219	1650.39697265625	40.03179550170898	175.2801055908203	1575.5751953125	44.82493209838867	202.9021453857422	1568.562866210938	34.46730422973633	94.19480133056641	1374.270385742188	43.90655899047852	145.3431549072266	1507.796020507812	503.8724670410156	360.111572265625	1503.729736328125	792.6839599609375	397.9723205566406	1411.890991210938	39.6624870300293	347.425048828125	1508.398559570312	358.7314453125	349.935546875	1635.093505859375	40.43826293945312	318.0832214355469	1572.321533203125	42.97183227539062	274.7203063964844	1543.163330078125	39.61969757080078	375.7713928222656	1362.10498046875	35.37495040893555	288.0043029785156	
477	4.76	1328.569580078125	1011.600402832031	277.4945678710938	1332.50634765625	1014.226684570312	144.2721252441406	1330.402099609375	1109.078369140625	206.6307067871094	1564.153442382812	1301.481201171875	203.0273132324219	1321.979248046875	1234.49755859375	202.900146484375	1367.399658203125	1508.891845703125	212.5676727294922	1542.757934570312	1412.212768554688	204.1497344970703	1299.2568359375	1383.50830078125	298.6835021972656	1333.98193359375	1455.375854492188	119.7357482910156	1433.227172851562	1481.289428710938	41.57148361206055	1442.736694335938	1355.764770507812	-37.80401992797852	1517.151611328125	1145.61474609375	-56.58720779418945	1426.991821289062	1113.679565429688	-22.12980651855469	1671.955444335938	948.2167358398438	20.35958862304688	1651.354125976562	910.3515014648438	-55.67940902709961	1565.843139648438	1070.823120117188	-55.2019157409668	1731.894653320312	789.0748291015625	25.94657325744629	1679.109497070312	857.8991088867188	-42.09695816040039	1717.12646484375	882.6138916015625	8.727938652038574	1428.0439453125	1472.522094726562	368.3616333007812	1410.064697265625	1408.151733398438	435.3268737792969	1408.201904296875	1120.556884765625	485.6676635742188	1352.746337890625	1101.754638671875	459.2179565429688	1549.655151367188	906.1133422851562	449.96484375	1505.422119140625	883.8093872070312	515.7047119140625	1419.89599609375	1066.239868164062	494.4745483398438	1569.467407226562	732.7970581054688	457.7909545898438	1580.732177734375	815.671875	464.600341796875	1524.94580078125	810.1075439453125	513.3908081054688	1464.7275390625	1694.179931640625	276.4967041015625	1624.131591796875	1697.550048828125	142.6279449462891	1605.663208007812	1698.982177734375	288.1662292480469	1493.331298828125	1690.645751953125	114.0979309082031	1469.548828125	944.0798950195312	10.71731281280518	1452.921264648438	946.1619262695312	402.8436584472656	1540.899047851562	979.5068359375	345.7771606445312	1541.544555664062	970.5834350585938	70.04486083984375	1535.49658203125	501.8658752441406	91.10026550292969	1519.715942382812	665.7208251953125	51.81515884399414	1445.031494140625	29.03497886657715	103.0750274658203	1472.864501953125	251.7446594238281	89.14015960693359	1650.413452148438	40.02764511108398	175.283447265625	1575.633666992188	44.83787536621094	202.9696197509766	1568.591186523438	34.50634384155273	94.32387542724609	1374.243041992188	43.98538208007812	145.5175628662109	1506.622436523438	503.9068298339844	360.6730041503906	1505.239013671875	792.9910888671875	398.4896240234375	1411.86767578125	39.45746612548828	347.5812683105469	1507.09619140625	358.9705200195312	350.3067016601562	1635.055786132812	40.53609085083008	318.1586303710938	1572.234008789062	43.11517715454102	274.8551025390625	1543.06787109375	39.4958381652832	376.0082702636719	1362.064331054688	35.31534957885742	288.12890625	
478	4.77	1331.168823242188	1012.243469238281	277.92578125	1335.123046875	1014.751403808594	144.7704925537109	1333.112915039062	1109.16796875	207.1014862060547	1566.292846679688	1302.076416015625	203.8629302978516	1324.2373046875	1234.697021484375	203.7869415283203	1369.0146484375	1509.0654296875	213.6154327392578	1544.588745117188	1412.782958984375	204.9986267089844	1301.237548828125	1383.52099609375	299.7633972167969	1335.5751953125	1455.537963867188	120.9264373779297	1434.518310546875	1481.612182617188	42.50634765625	1443.008911132812	1355.910400390625	-36.90996170043945	1514.919921875	1144.930419921875	-55.63915252685547	1424.709350585938	1114.03271484375	-20.22091484069824	1668.61572265625	946.5267944335938	20.83885955810547	1647.09912109375	908.5305786132812	-54.87227630615234	1562.962524414062	1069.74951171875	-54.38954544067383	1727.17041015625	786.794921875	26.65554046630859	1674.490844726562	855.8773803710938	-41.30257034301758	1713.119506835938	880.4816284179688	9.10163402557373	1429.794555664062	1472.853393554688	369.3497009277344	1411.902709960938	1408.52001953125	436.3731689453125	1410.112060546875	1120.90380859375	486.7095947265625	1354.653076171875	1102.247802734375	460.1584167480469	1550.737670898438	905.5419311523438	451.62890625	1506.206787109375	883.7713623046875	517.4127807617188	1421.58447265625	1066.55859375	495.6385803222656	1569.108520507812	732.1314086914062	459.8881530761719	1581.07470703125	814.9403686523438	466.4927062988281	1525.233032226562	809.9502563476562	515.297119140625	1465.322387695312	1694.6279296875	276.8699645996094	1625.415283203125	1698.38720703125	143.8911743164062	1605.901733398438	1699.873901367188	288.857666015625	1494.835327148438	1690.873413085938	114.6042022705078	1472.19970703125	944.5628051757812	11.55423927307129	1455.267822265625	946.50537109375	403.4892272949219	1543.275512695312	979.69775390625	346.5294799804688	1544.272827148438	971.0418090820312	70.83580017089844	1535.895385742188	501.7965698242188	91.34832000732422	1520.957885742188	665.7230224609375	52.21629333496094	1445.028198242188	29.12668418884277	103.1819763183594	1472.817016601562	251.9037475585938	89.30664825439453	1650.426513671875	40.03058242797852	175.2832794189453	1575.689331054688	44.85943222045898	203.0231323242188	1568.61181640625	34.53486633300781	94.42994689941406	1374.21826171875	44.06194686889648	145.6671142578125	1505.499877929688	503.8955688476562	361.4224548339844	1506.4814453125	793.26025390625	399.1305541992188	1411.857055664062	39.24298477172852	347.7538757324219	1505.83642578125	359.1930541992188	350.7657165527344	1635.035522460938	40.61182403564453	318.2526550292969	1572.148315429688	43.25278091430664	275.0119934082031	1542.976928710938	39.33085632324219	376.2896423339844	1362.03515625	35.27964401245117	288.2671203613281	
479	4.78	1333.684448242188	1012.88916015625	278.3334045410156	1337.690795898438	1015.280212402344	145.1811828613281	1335.789916992188	1109.240234375	207.5048980712891	1568.423583984375	1302.5859375	204.7056579589844	1326.485229492188	1234.868408203125	204.5932464599609	1370.660888671875	1509.222045898438	214.61376953125	1546.4384765625	1413.285766601562	205.8493041992188	1303.203125	1383.517333984375	300.7674560546875	1337.245727539062	1455.67724609375	122.0461730957031	1435.920043945312	1481.905639648438	43.42351150512695	1443.370239257812	1356.06005859375	-36.07494354248047	1512.555786132812	1144.214477539062	-54.79887390136719	1422.299560546875	1114.432861328125	-18.38729858398438	1664.969604492188	944.6697387695312	21.15565299987793	1642.485595703125	906.5761108398438	-54.21252059936523	1559.880981445312	1068.603759765625	-53.68705368041992	1721.9970703125	784.29296875	27.20339012145996	1669.462890625	853.7008056640625	-40.65841674804688	1708.742553710938	878.1320190429688	9.316170692443848	1431.551879882812	1473.145874023438	370.3060302734375	1413.714965820312	1408.8515625	437.3815307617188	1411.93310546875	1121.23486328125	487.7839965820312	1356.477172851562	1102.706787109375	461.1182556152344	1551.809692382812	904.9800415039062	453.333984375	1506.973388671875	883.7582397460938	519.1624755859375	1423.186645507812	1066.840209960938	496.8260803222656	1568.846557617188	731.5066528320312	462.029296875	1581.4453125	814.2550048828125	468.4455261230469	1525.561645507812	809.8239135742188	517.246826171875	1465.8154296875	1695.053344726562	277.1347961425781	1626.746337890625	1699.19482421875	145.2523040771484	1606.026489257812	1700.787475585938	289.6313781738281	1496.437133789062	1691.01953125	115.0445404052734	1474.753051757812	944.9241333007812	12.2743968963623	1457.209838867188	946.793701171875	404.2018127441406	1545.5224609375	979.8042602539062	347.3056335449219	1546.9033203125	971.3782348632812	71.50963592529297	1536.131591796875	501.7156677246094	91.49592590332031	1522.056640625	665.7276000976562	52.49442291259766	1445.014770507812	29.19772529602051	103.2759170532227	1472.680419921875	252.0617218017578	89.42009735107422	1650.438232421875	40.04246139526367	175.2777252197266	1575.737182617188	44.88498687744141	203.0618133544922	1568.624755859375	34.55242156982422	94.51082611083984	1374.196655273438	44.13137054443359	145.7880706787109	1504.431518554688	503.8190002441406	362.2922058105469	1507.460327148438	793.4583129882812	399.9046020507812	1411.849853515625	39.04391479492188	347.911376953125	1504.633666992188	359.3719787597656	351.2556762695312	1635.0283203125	40.67315292358398	318.3544616699219	1572.068725585938	43.37091445922852	275.167724609375	1542.894897460938	39.15185165405273	376.5735778808594	1362.012451171875	35.24991989135742	288.3902587890625	
